<svg height="512" viewBox="0 0 64 64" width="512" xmlns="http://www.w3.org/2000/svg"><g id="flat"><path d="m61 20v24l-4 4h-50l-4-4v-24l4-4h50z" fill="#143441"/><path d="m10 24h44v16h-44z" fill="#f4f4e6"/><g fill="#dd3e46"><path d="m13 27h2v10h-2z"/><path d="m17 29h2v2h-2z"/><path d="m17 33h2v2h-2z"/><path d="m34 29h2v2h-2z"/><path d="m34 33h2v2h-2z"/><path d="m24 27h-3v2h2v2h-2v2h2v2h-2v2h3a1 1 0 0 0 1-1v-8a1 1 0 0 0 -1-1z"/><path d="m32 37h-4a1 1 0 0 1 -1-1v-4a1 1 0 0 1 1-1h2v-2h-3v-2h4a1 1 0 0 1 1 1v4a1 1 0 0 1 -1 1h-2v2h3z"/><path d="m43 37h-2v-8h-3v-2h4a1 1 0 0 1 1 1z"/><path d="m50 37h-4a1 1 0 0 1 -1-1v-8a1 1 0 0 1 1-1h5v2h-4v2h3a1 1 0 0 1 1 1v4a1 1 0 0 1 -1 1zm-3-2h2v-2h-2z"/></g><path d="m3 24h7v4h-7z" fill="#7d8d9c"/><path d="m3 28h7v4h-7z" fill="#5a6470"/><path d="m3 32h7v4h-7z" fill="#7d8d9c"/><path d="m3 36h7v4h-7z" fill="#5a6470"/><path d="m54 24h7v4h-7z" fill="#7d8d9c"/><path d="m54 28h7v4h-7z" fill="#5a6470"/><path d="m54 32h7v4h-7z" fill="#7d8d9c"/><path d="m54 36h7v4h-7z" fill="#5a6470"/><path d="m45 20h-26l-2-4h30z" fill="#7d8d9c"/><path d="m10 19v2h-7v-1l1-1z" fill="#5a6470"/><path d="m12 19h2v2h-2z" fill="#5a6470"/><path d="m48 19h2v2h-2z" fill="#5a6470"/><path d="m52 19h2v2h-2z" fill="#5a6470"/><path d="m61 20v1h-5v-2h4z" fill="#5a6470"/><circle cx="42" cy="44" fill="#f4f4e6" r="2"/><circle cx="50" cy="44" fill="#f4f4e6" r="2"/><circle cx="14" cy="44" fill="#f4f4e6" r="2"/><circle cx="22" cy="44" fill="#f4f4e6" r="2"/><path d="m31 43h2v2h-2z" fill="#f9bb4b"/><path d="m27 43h2v2h-2z" fill="#f9bb4b"/><path d="m35 43h2v2h-2z" fill="#f9bb4b"/></g></svg>